<?xml version="1.0" encoding="utf-8"?>
<!-- Generator: Adobe Illustrator 19.2.0, SVG Export Plug-In . SVG Version: 6.00 Build 0)  -->
<svg version="1.1" id="Layer_1" xmlns="http://www.w3.org/2000/svg" xmlns:xlink="http://www.w3.org/1999/xlink" x="0px" y="0px"
	 viewBox="0 0 500 200" style="enable-background:new 0 0 500 200;" xml:space="preserve">
<style type="text/css">
	.st0{fill:none;stroke:#FFFFFF;stroke-width:2;stroke-miterlimit:10;}
</style>
<path id="USGS" class="st0" d="M234.9,15.4v85c0,17.9-10.1,36.9-40.7,36.9c-27.6,0-40.9-14.3-40.9-36.9v-85h25.1v83.4
	c0,14.8,6.3,20.6,15.4,20.6c11,0,15.9-7.3,15.9-20.6V15.4L234.9,15.4 M275.7,137.3c-31.1,0-36.9-18.3-35.5-39h25.1
	c0,11.5,0.5,21.1,14.3,21.1c8.5,0,12.6-5.5,12.6-13.6c0-21.6-50.5-22.9-50.5-58.6c0-18.8,9-33.7,39.5-33.7c24.4,0,36.5,11,34.9,36
	h-24.4c0-9-1.5-18.1-11.6-18.1c-8.1,0-13,4.5-13,12.8c0,22.8,50.5,20.8,50.5,58.5C317.6,133.7,294.8,137.4,275.7,137.3 M444.3,137.4
	c-31.1,0-36.9-18.3-35.5-39h25.1c0,11.5,0.5,21.1,14.3,21.1c8.5,0,12.6-5.5,12.6-13.6c0-21.6-50.5-22.9-50.5-58.6
	c0-18.8,9-33.7,39.5-33.7c24.4,0,36.5,11,34.9,36h-24.4c0-9-1.5-18.1-11.6-18.1c-8.1,0-13,4.5-13,12.8c0,22.8,50.5,20.8,50.5,58.5
	C486.2,133.7,463.4,137.4,444.3,137.4 M364.5,90.7h14.8v26.5l-1.2,0.5c-3.8,1.3-8.3,2.3-12.5,2.3c-14.3,0-17.9-6.6-17.9-44.2
	c0-23.3,0-44.3,15.6-44.3c12.1,0,14.7,8.2,14.9,18.1h25c0.2-23.3-14.8-36-38.4-36c-41,0-42.5,30.7-42.5,61
	c0,45.5,4.9,63.2,47.1,63.2c9.8,0,25.4-2.2,32.6-4.2c0.4-0.1,1.2-0.6,1.2-1.2V72.6h-38.6L364.5,90.7"/>
<path id="waves" class="st0" d="M48.7,55.6l0.4,0.4c11.8,9.8,24.4,8.9,34.1,2.5c6.1-4,33.6-22.4,49.2-32.7V15.4h-116v27.3
	C23.5,41.5,34.9,42.7,48.7,55.6 M92.4,101L78.7,87.9c-1.9-1.8-3.6-3-3.9-3.3c-11.2-7.9-21.6-5.5-26.1-3.8c-1.4,0.5-2.7,1.3-3.6,1.9
	l-28.6,19.1v34.7h116v-24.9C129.9,113.1,114.2,121.6,92.4,101 M47.7,58.7c-0.6-0.6-1.3-1.2-1.9-1.7c-13.7-10.6-26.6-5.4-29.4-4.1
	v11.9l6.7-4.5c0,0,10.3-7.7,26.4,0.2L47.7,58.7 M63.7,74.1c-0.6-0.5-1.2-1.1-1.8-1.7C49.8,62.2,38,64.8,33.1,66.6
	c-1.4,0.6-2.7,1.3-3.6,1.9l-13.1,8.8v12.3l21.9-14.7c0,0,10.2-7.6,26.2,0.1L63.7,74.1 M132.5,87c-4.6,3.1-9.2,6.2-11,7.4
	c-4.1,2.8-13.7,9.6-29.6,2l1.9,1.8c0.7,0.6,1.6,1.4,2.5,2.1c11.4,8.5,23.6,7.3,32.8,1.2c1.3-0.8,2.4-1.6,3.5-2.3L132.5,87
	 M132.5,62.4c-10,6.7-23.5,15.8-26.1,17.5c-4.1,2.8-13.8,9.7-29.4,2.3l1.8,1.7c0.2,0.2,0.4,0.4,0.6,0.6l0,0l0,0
	c12.1,10.2,25.4,8.7,34.5,2.6c5.1-3.4,12.5-8.4,18.5-12.5L132.5,62.4 M132.4,37.9c-14.5,9.7-38.2,25.6-41,27.5
	c-4.2,2.8-14,9.8-29.3,2.5l1.9,1.8c1.1,1,2.6,2.3,4.2,3.3c10.6,6.8,21.8,5.6,30.8-0.5c6.5-4.4,22.5-15,33.5-22.3V37.9"/>
<path id="tagline" class="st0" d="M22.3,172.1c-0.2,1-0.4,1.9-0.3,2.6c0.2,0.7,0.7,1,1.9,1c1.2,0,2.3-0.8,2.6-2.2
	c1-4.5-9.7-3.5-8.2-10.2c1-4.6,5.8-6,9.6-6c4,0,7.3,1.9,6,6.5h-5.8c0.3-1.5,0.3-2.3,0-2.7c-0.3-0.4-0.8-0.5-1.4-0.5
	c-1.3,0-2.2,0.8-2.5,2.3c-0.7,3.4,9.7,3.2,8.3,10c-0.8,3.7-4.4,6.5-9.3,6.5c-5.2,0-8.3-1.3-6.7-7.2L22.3,172.1 M47.6,165.3
	c0.7-3.1,0.1-4.2-1.8-4.2c-2.5,0-3.2,2.2-4.1,6.6c-1.4,6.5-1.1,7.8,1.1,7.8c1.8,0,3.1-1.7,3.7-4.4h5.9c-1.2,5.7-4.8,8.2-10.4,8.2
	c-7.6,0-7.6-4.7-6.2-11.3c1.2-5.8,3.1-10.7,10.9-10.7c5.4,0,8,2.4,6.9,8L47.6,165.3 M66,149.6l-1,4.7h-5.9l1-4.7H66 M59.8,178.9
	h-5.9l4.5-21.2h5.9L59.8,178.9L59.8,178.9z M342.5,149.6l-1,4.7h-5.9l1-4.7H342.5 M336.3,178.9h-5.9l4.5-21.2h5.9L336.3,178.9
	L336.3,178.9z M77.3,166c0.4-2.1,1.1-5-1.7-5c-2.7,0-3.4,3.2-3.7,5H77.3 M71.2,169.3c-0.5,2.5-1.3,6.3,1.3,6.3c2.1,0,2.9-2,3.3-3.8
	h6c-0.6,2.3-1.7,4.2-3.4,5.5c-1.7,1.3-3.9,2.1-6.7,2.1c-7.6,0-7.6-4.7-6.2-11.3c1.2-5.8,3.1-10.7,10.9-10.7c8,0,7.8,5.2,6.1,11.9
	L71.2,169.3L71.2,169.3z M93.6,159.9L93.6,159.9c1.7-1.9,3.4-2.6,5.6-2.6c2.8,0,4.9,1.7,4.3,4.6l-3.6,17H94l3.1-14.6
	c0.4-1.9,0.4-3.4-1.5-3.4c-1.9,0-2.5,1.5-2.9,3.4l-3.1,14.6h-5.9l4.5-21.2h5.9L93.6,159.9 M117.1,165.3c0.7-3.1,0.1-4.2-1.8-4.2
	c-2.5,0-3.2,2.2-4.1,6.6c-1.4,6.5-1.1,7.8,1.1,7.8c1.8,0,3.1-1.7,3.7-4.4h5.9c-1.2,5.7-4.8,8.2-10.4,8.2c-7.6,0-7.6-4.7-6.2-11.3
	c1.2-5.8,3.1-10.7,10.9-10.7c5.4,0,8,2.4,6.9,8L117.1,165.3 M136.7,166c0.4-2.1,1.1-5-1.7-5c-2.7,0-3.4,3.2-3.7,5H136.7
	 M130.6,169.3c-0.5,2.5-1.3,6.3,1.3,6.3c2.1,0,2.9-2,3.3-3.8h6c-0.6,2.3-1.7,4.2-3.4,5.5c-1.7,1.3-3.9,2.1-6.7,2.1
	c-7.6,0-7.6-4.7-6.2-11.3c1.2-5.8,3.1-10.7,10.9-10.7c8,0,7.7,5.2,6.1,11.9L130.6,169.3L130.6,169.3z M166.7,153.4
	c-2.4-0.2-3.1,0.8-3.5,2.9l-0.4,1.5h2.8l-0.8,3.6H162l-3.7,17.5h-5.9l3.7-17.5h-2.6l0.8-3.6h2.7c1.2-5.3,2.3-8.2,8.5-8.2
	c0.7,0,1.4,0,2.1,0.1L166.7,153.4 M176.3,167.7c0.9-4.4,1.2-6.6-1.3-6.6c-2.5,0-3.2,2.2-4.1,6.6c-1.4,6.5-1.1,7.8,1.1,7.8
	C174.1,175.6,174.9,174.2,176.3,167.7 M164.9,168.1c1.2-5.8,3.1-10.7,10.9-10.7s7.6,4.9,6.4,10.7c-1.4,6.6-3.4,11.3-11,11.3
	C163.5,179.3,163.4,174.7,164.9,168.1L164.9,168.1z M192.7,157.8l-0.6,2.7h0.1c1.6-2.4,3.8-3.1,6.2-3.1l-1.1,5.3
	c-5.1-0.3-5.9,2.7-6.3,4.8l-2.4,11.5h-5.9l4.5-21.2L192.7,157.8 M210.5,172.3c-0.3,1.5-0.5,3.4,1.5,3.4c3.5,0,3.9-4.7,4.4-7
	C213.5,168.8,211.4,168.6,210.5,172.3 M220.9,175c-0.3,1.3-0.4,2.6-0.5,3.9h-5.5l0.3-2.8h-0.1c-1.7,2.2-3.7,3.2-6.2,3.2
	c-4.1,0-5-3.1-4.2-6.7c1.5-7,7-7.3,12.4-7.2l0.3-1.6c0.4-1.8,0.4-3.1-1.7-3.1c-2.1,0-2.5,1.6-2.9,3.2h-5.8c0.5-2.6,1.7-4.2,3.3-5.2
	c1.6-1,3.6-1.4,5.8-1.4c7.5,0,7.8,3.2,7,7.1L220.9,175L220.9,175z M244.3,165.3c0.7-3.1,0.1-4.2-1.7-4.2c-2.5,0-3.2,2.2-4.1,6.6
	c-1.4,6.5-1.1,7.8,1.1,7.8c1.8,0,3.1-1.7,3.7-4.4h5.9c-1.2,5.7-4.8,8.2-10.4,8.2c-7.6,0-7.6-4.7-6.2-11.3
	c1.2-5.8,3.1-10.7,10.9-10.7c5.4,0,8,2.4,6.9,8L244.3,165.3 M276.7,172.3c-0.3,1.5-0.5,3.4,1.5,3.4c3.5,0,3.9-4.7,4.4-7
	C279.7,168.8,277.5,168.6,276.7,172.3 M287.1,175c-0.3,1.3-0.4,2.6-0.5,3.9H281l0.3-2.8h-0.1c-1.7,2.2-3.7,3.2-6.2,3.2
	c-4.1,0-5-3.1-4.2-6.7c1.5-7,7-7.3,12.4-7.2l0.4-1.6c0.4-1.8,0.4-3.1-1.7-3.1c-2.1,0-2.5,1.6-2.9,3.2h-5.8c0.5-2.6,1.7-4.2,3.3-5.2
	c1.6-1,3.6-1.4,5.8-1.4c7.5,0,7.8,3.2,7,7.1L287.1,175L287.1,175z M300,159.9L300,159.9c1.7-1.9,3.4-2.6,5.6-2.6
	c2.8,0,4.9,1.7,4.3,4.6l-3.6,17h-5.9l3.1-14.6c0.4-1.9,0.4-3.4-1.5-3.4c-1.9,0-2.5,1.5-2.9,3.4l-3.1,14.6h-5.9l4.5-21.2h5.9
	L300,159.9 M318.7,175c2.1,0,2.9-2.2,3.9-6.7c1-4.7,1.3-7.3-0.8-7.3c-2.2,0-2.9,1.5-4.3,8C317,171,315.8,175,318.7,175 M330.7,157.8
	l-4.7,22c-0.3,1.5-1.5,7.2-9.6,7.2c-4.4,0-7.9-1.1-7-6.3h5.8c-0.2,0.9-0.2,1.6,0,2.1c0.3,0.5,0.9,0.8,1.8,0.8c1.5,0,2.5-1.4,2.9-3.5
	l0.9-4.1h-0.1c-1.2,1.6-3.1,2.5-5,2.5c-6.5,0-4.9-5.9-3.9-10.7c1-4.6,2.3-10.6,8.5-10.6c2.1,0,3.7,0.9,4.1,2.9h0.1l0.5-2.5
	L330.7,157.8L330.7,157.8L330.7,157.8L330.7,157.8z M350.5,159.9L350.5,159.9c1.7-1.9,3.4-2.6,5.6-2.6c2.8,0,4.9,1.7,4.3,4.6
	l-3.6,17h-5.9l3.1-14.6c0.4-1.9,0.4-3.4-1.5-3.4c-1.9,0-2.5,1.5-2.9,3.4l-3.1,14.6h-5.9l4.5-21.2h5.9L350.5,159.9 M369.1,175
	c2.1,0,2.9-2.2,3.9-6.7c1-4.7,1.3-7.3-0.8-7.3c-2.2,0-2.9,1.5-4.3,8C367.4,171,366.3,175,369.1,175 M381.1,157.8l-4.7,22
	c-0.3,1.5-1.5,7.2-9.6,7.2c-4.4,0-7.9-1.1-7-6.3h5.8c-0.2,0.9-0.2,1.6,0,2.1c0.3,0.5,0.9,0.8,1.8,0.8c1.5,0,2.5-1.4,2.9-3.5l0.9-4.1
	h-0.1c-1.2,1.6-3.1,2.5-5,2.5c-6.5,0-4.9-5.9-3.9-10.7c1-4.6,2.3-10.6,8.5-10.6c2.1,0,3.7,0.9,4.1,2.9h0.1l0.5-2.5L381.1,157.8
	L381.1,157.8L381.1,157.8L381.1,157.8z M390.3,157.8h5.9l-0.5,15.9h0.1l7-15.9h6.3l0.1,15.9h0.1l6.4-15.9h5.7l-10,21.2h-6.2l-0.6-14
	h-0.1l-7.1,14h-6.3L390.3,157.8 M431.6,167.7c0.9-4.4,1.2-6.6-1.3-6.6c-2.5,0-3.2,2.2-4.1,6.6c-1.4,6.5-1.1,7.8,1.1,7.8
	C429.4,175.6,430.2,174.2,431.6,167.7 M420.2,168.1c1.2-5.8,3.1-10.7,10.9-10.7c7.8,0,7.6,4.9,6.4,10.7c-1.4,6.6-3.4,11.3-11,11.3
	S418.8,174.7,420.2,168.1L420.2,168.1z M448.4,157.8l-0.6,2.7h0.1c1.6-2.4,3.8-3.1,6.2-3.1l-1.1,5.3c-5.1-0.3-5.9,2.7-6.3,4.8
	l-2.4,11.5h-5.9l4.5-21.2L448.4,157.8 M266,157.4c-2.2,0-4,0.7-5.5,2.6h-0.1l2.2-10.3h-5.9l-6.2,29.3h5.9l3.1-14.6
	c0.4-1.9,1-3.4,2.9-3.4s1.9,1.5,1.5,3.4l-3.1,14.6h5.9l3.6-17C270.9,159,268.8,157.4,266,157.4 M458.2,149.6l-6.2,29.3h5.9l6.2-29.3
	H458.2 M474,168.2c-1.1,5.3-2,7.5-4,7.5c-2.1,0-2-2.2-0.9-7.5c0.9-4.2,1.5-7.2,4-7.2C475.6,161,474.9,163.9,474,168.2 M478,149.6
	l-2.2,10.2h-0.1c-0.8-1.8-2.2-2.4-4.3-2.4c-6,0-7.2,6.6-8.1,10.9c-0.9,4.4-2.6,11.1,3.5,11.1c2.3,0,4.1-0.7,5.6-2.8h0.1l-0.5,2.3
	h5.6l6.2-29.3L478,149.6L478,149.6L478,149.6z"/>
</svg>
